<?xml version="1.0" encoding="UTF-8" standalone="no"?>
<!-- Created with Inkscape (http://www.inkscape.org/) -->

<svg
   xmlns:dc="http://purl.org/dc/elements/1.1/"
   xmlns:cc="http://creativecommons.org/ns#"
   xmlns:rdf="http://www.w3.org/1999/02/22-rdf-syntax-ns#"
   xmlns:svg="http://www.w3.org/2000/svg"
   xmlns="http://www.w3.org/2000/svg"
   xmlns:sodipodi="http://sodipodi.sourceforge.net/DTD/sodipodi-0.dtd"
   xmlns:inkscape="http://www.inkscape.org/namespaces/inkscape"
   width="29.999733mm"
   height="53.045868mm"
   viewBox="0 0 29.999733 53.045868"
   version="1.1"
   id="svg8"
   sodipodi:docname="MotorSupport.svg"
   inkscape:version="0.92.2 5c3e80d, 2017-08-06">
  <defs
     id="defs2" />
  <sodipodi:namedview
     id="base"
     pagecolor="#ffffff"
     bordercolor="#666666"
     borderopacity="1.0"
     inkscape:pageopacity="0.0"
     inkscape:pageshadow="2"
     inkscape:zoom="1.8205853"
     inkscape:cx="77.226998"
     inkscape:cy="133.17558"
     inkscape:document-units="mm"
     inkscape:current-layer="layer1"
     showgrid="false"
     showguides="true"
     inkscape:guide-bbox="true"
     inkscape:window-width="1280"
     inkscape:window-height="755"
     inkscape:window-x="0"
     inkscape:window-y="281"
     inkscape:window-maximized="1"
     fit-margin-top="0"
     fit-margin-left="0"
     fit-margin-right="0"
     fit-margin-bottom="0">
    <sodipodi:guide
       position="16.417663,38.039524"
       orientation="0,1"
       id="guide819"
       inkscape:locked="false" />
  </sodipodi:namedview>
  <metadata
     id="metadata5">
    <rdf:RDF>
      <cc:Work
         rdf:about="">
        <dc:format>image/svg+xml</dc:format>
        <dc:type
           rdf:resource="http://purl.org/dc/dcmitype/StillImage" />
        <dc:title></dc:title>
      </cc:Work>
    </rdf:RDF>
  </metadata>
  <g
     inkscape:label="Layer 1"
     inkscape:groupmode="layer"
     id="layer1"
     transform="translate(-17.620365,-116.58797)">
    <path
       style="opacity:1;fill:none;fill-opacity:1;stroke:#000000;stroke-width:0.2;stroke-miterlimit:4;stroke-dasharray:none;stroke-dashoffset:0.57139313;stroke-opacity:0.97619042"
       d="m 27.970238,126.4381 h 9.3 c 0.831,0 1.5,2.2969 1.5,5.15 0,2.8531 -0.669,5.15 -1.5,5.15 h -9.3 c -0.831,0 -1.5,-2.2969 -1.5,-5.15 0,-2.8531 0.669,-5.15 1.5,-5.15 z"
       id="rect817"
       inkscape:connector-curvature="0" />
    <path
       style="opacity:1;fill:none;fill-opacity:1;stroke:#000000;stroke-width:0.75590545;stroke-miterlimit:4;stroke-dasharray:none;stroke-dashoffset:0.57139313;stroke-opacity:0.97619042"
       d="m 123.28906,441.02539 a 56.314961,56.314961 0 0 0 -56.314451,56.31641 56.314961,56.314961 0 0 0 18.902344,42.01562 c -3.49e-4,0.0369 -0.0059,0.0724 -0.0059,0.10938 v 89.95312 c 0,6.28158 5.058269,11.33789 11.339844,11.33789 h 52.156253 c 6.28157,0 11.33984,-5.05631 11.33984,-11.33789 V 539.4668 c 0,-0.0429 -0.005,-0.0842 -0.006,-0.12696 a 56.314961,56.314961 0 0 0 18.90235,-41.99804 56.314961,56.314961 0 0 0 -56.31446,-56.31641 z"
       transform="scale(0.26458333)"
       id="path821"
       inkscape:connector-curvature="0" />
    <path
       style="opacity:1;fill:none;fill-opacity:1;stroke:#000000;stroke-width:0.2;stroke-miterlimit:4;stroke-dasharray:none;stroke-dashoffset:0.57139313;stroke-opacity:0.97619042"
       d="m 27.770488,128.68811 h 9.6995 c 0.581838,0 1.05025,1.2934 1.05025,2.9 0,1.6066 -0.468412,2.9 -1.05025,2.9 h -9.6995 c -0.581839,0 -1.05025,-1.2934 -1.05025,-2.9 0,-1.6066 0.468411,-2.9 1.05025,-2.9 z"
       id="rect823"
       inkscape:connector-curvature="0" />
    <circle
       style="opacity:1;fill:none;fill-opacity:1;stroke:#000000;stroke-width:0.2;stroke-miterlimit:4;stroke-dasharray:none;stroke-dashoffset:0.57139313;stroke-opacity:0.97619042"
       id="path833"
       cx="32.620232"
       cy="162.40541"
       r="1.9" />
    <circle
       r="1.9"
       cy="146.5304"
       cx="32.620232"
       id="circle835"
       style="opacity:1;fill:none;fill-opacity:1;stroke:#000000;stroke-width:0.2;stroke-miterlimit:4;stroke-dasharray:none;stroke-dashoffset:0.57139313;stroke-opacity:0.97619042" />
    <circle
       style="opacity:1;fill:none;fill-opacity:1;stroke:#000000;stroke-width:0.20000002;stroke-miterlimit:4;stroke-dasharray:none;stroke-dashoffset:0.57139313;stroke-opacity:0.97619042"
       id="path858"
       cx="32.620239"
       cy="131.5881"
       r="8.9000006" />
  </g>
</svg>
