<?xml version="1.0" encoding="UTF-8" standalone="no"?>
<!-- Created with Inkscape (http://www.inkscape.org/) -->

<svg
   xmlns:dc="http://purl.org/dc/elements/1.1/"
   xmlns:cc="http://creativecommons.org/ns#"
   xmlns:rdf="http://www.w3.org/1999/02/22-rdf-syntax-ns#"
   xmlns:svg="http://www.w3.org/2000/svg"
   xmlns="http://www.w3.org/2000/svg"
   xmlns:sodipodi="http://sodipodi.sourceforge.net/DTD/sodipodi-0.dtd"
   xmlns:inkscape="http://www.inkscape.org/namespaces/inkscape"
   width="204.85905mm"
   height="147.60793mm"
   viewBox="0 0 204.85905 147.60793"
   version="1.1"
   id="svg8"
   inkscape:version="0.92.2 5c3e80d, 2017-08-06"
   sodipodi:docname="MovingParts.svg">
  <defs
     id="defs2" />
  <sodipodi:namedview
     id="base"
     pagecolor="#ffffff"
     bordercolor="#666666"
     borderopacity="1.0"
     inkscape:pageopacity="0.0"
     inkscape:pageshadow="2"
     inkscape:zoom="2.5863398"
     inkscape:cx="511.13073"
     inkscape:cy="339.02593"
     inkscape:document-units="mm"
     inkscape:current-layer="svg8"
     showgrid="false"
     inkscape:window-width="1280"
     inkscape:window-height="755"
     inkscape:window-x="0"
     inkscape:window-y="281"
     inkscape:window-maximized="1"
     fit-margin-top="0"
     fit-margin-left="0"
     fit-margin-right="0"
     fit-margin-bottom="0" />
  <metadata
     id="metadata5">
    <rdf:RDF>
      <cc:Work
         rdf:about="">
        <dc:format>image/svg+xml</dc:format>
        <dc:type
           rdf:resource="http://purl.org/dc/dcmitype/StillImage" />
        <dc:title></dc:title>
      </cc:Work>
    </rdf:RDF>
  </metadata>
  <g
     inkscape:label="LaserCut"
     inkscape:groupmode="layer"
     id="layer1"
     transform="translate(-2.226299,-0.53201946)"
     style="display:none">
    <path
       style="opacity:1;fill:none;fill-opacity:1;stroke:#000000;stroke-width:0.2;stroke-miterlimit:4;stroke-dasharray:none;stroke-dashoffset:0.57139313;stroke-opacity:0.97619042"
       d="M 104.33573,50.552376 A 49.900002,49.899998 0 0 1 54.435726,100.45237 49.900002,49.899998 0 0 1 4.5357246,50.552376 49.900002,49.899998 0 0 1 54.435726,0.65237808 49.900002,49.899998 0 0 1 104.33573,50.552376 Z"
       id="path815"
       inkscape:connector-curvature="0" />
    <path
       style="opacity:1;fill:none;fill-opacity:1;stroke:#000000;stroke-width:0.19999999;stroke-miterlimit:4;stroke-dasharray:none;stroke-dashoffset:0.57139313;stroke-opacity:0.97619042"
       d="m 168.42302,30.532019 a 29.9,29.9 0 0 1 -29.9,29.899999 29.9,29.9 0 0 1 -29.9,-29.899999 29.9,29.9 0 0 1 29.9,-29.89999955 29.9,29.9 0 0 1 29.9,29.89999955 z"
       id="ellipse817"
       inkscape:connector-curvature="0" />
    <path
       style="opacity:1;fill:none;fill-opacity:1;stroke:#000000;stroke-width:0.2;stroke-miterlimit:4;stroke-dasharray:none;stroke-dashoffset:0.57139313;stroke-opacity:0.97619042"
       d="m 58.335726,50.552376 a 3.9000001,3.9000001 0 0 1 -3.9,3.9 3.9000001,3.9000001 0 0 1 -3.9,-3.9 3.9000001,3.9000001 0 0 1 3.9,-3.9 3.9000001,3.9000001 0 0 1 3.9,3.9 z"
       id="path840"
       inkscape:connector-curvature="0" />
    <path
       style="opacity:1;fill:none;fill-opacity:1;stroke:#000000;stroke-width:0.2;stroke-miterlimit:4;stroke-dasharray:none;stroke-dashoffset:0.57139313;stroke-opacity:0.97619042"
       d="m 142.42302,30.532019 a 3.9000001,3.9000001 0 0 1 -3.9,3.9 3.9000001,3.9000001 0 0 1 -3.9,-3.9 3.9000001,3.9000001 0 0 1 3.9,-3.9 3.9000001,3.9000001 0 0 1 3.9,3.9 z"
       id="circle842"
       inkscape:connector-curvature="0" />
    <path
       inkscape:connector-curvature="0"
       style="opacity:1;fill:none;fill-opacity:1;stroke:#000000;stroke-width:0.2;stroke-miterlimit:4;stroke-dasharray:none;stroke-dashoffset:0.57139313;stroke-opacity:0.97619042"
       d="m 206.98535,136.13989 a 11.899999,11.9 0 0 0 -11.90005,-11.90005 11.899999,11.9 0 0 0 -9.30382,4.49999 H 10.185479 c -4.1550007,0 -7.4997997,3.30046 -7.4997997,7.40006 0,4.0996 3.344799,7.40007 7.4997997,7.40007 H 185.76649 a 11.899999,11.9 0 0 0 9.31881,4.49998 11.899999,11.9 0 0 0 11.90005,-11.90005 z"
       id="rect856" />
    <path
       style="opacity:1;fill:none;fill-opacity:1;stroke:#000000;stroke-width:0.20000002;stroke-miterlimit:4;stroke-dasharray:none;stroke-dashoffset:0.57139313;stroke-opacity:0.97619042"
       d="m 154.63898,138.03989 a 1.9000001,1.9000001 0 0 1 -1.90001,-1.9 1.9000001,1.9000001 0 0 1 1.90001,-1.9 1.9000001,1.9000001 0 0 1 1.89999,1.9 1.9000001,1.9000001 0 0 1 -1.89999,1.9 z"
       id="circle860"
       inkscape:connector-curvature="0" />
    <path
       style="opacity:1;fill:none;fill-opacity:1;stroke:#000000;stroke-width:0.20000002;stroke-miterlimit:4;stroke-dasharray:none;stroke-dashoffset:0.57139313;stroke-opacity:0.97619042"
       d="m 114.63897,138.03989 a 1.9000001,1.9000001 0 0 1 -1.9,-1.9 1.9000001,1.9000001 0 0 1 1.9,-1.9 1.9000001,1.9000001 0 0 1 1.9,1.9 1.9000001,1.9000001 0 0 1 -1.9,1.9 z"
       id="circle862"
       inkscape:connector-curvature="0" />
    <path
       style="opacity:1;fill:none;fill-opacity:1;stroke:#000000;stroke-width:0.20000002;stroke-miterlimit:4;stroke-dasharray:none;stroke-dashoffset:0.57139313;stroke-opacity:0.97619042"
       d="m 74.638971,138.03989 a 1.9000001,1.9000001 0 0 1 -1.9,-1.9 1.9000001,1.9000001 0 0 1 1.9,-1.9 1.9000001,1.9000001 0 0 1 1.9,1.9 1.9000001,1.9000001 0 0 1 -1.9,1.9 z"
       id="circle864"
       inkscape:connector-curvature="0" />
    <path
       style="opacity:1;fill:none;fill-opacity:1;stroke:#000000;stroke-width:0.20000002;stroke-miterlimit:4;stroke-dasharray:none;stroke-dashoffset:0.57139313;stroke-opacity:0.97619042"
       d="m 10.297321,138.03989 a 1.9000001,1.9000001 0 0 1 -1.9,-1.9 1.9000001,1.9000001 0 0 1 1.9,-1.9 1.9000001,1.9000001 0 0 1 1.9,1.9 1.9000001,1.9000001 0 0 1 -1.9,1.9 z"
       id="circle866"
       inkscape:connector-curvature="0" />
    <path
       inkscape:connector-curvature="0"
       style="opacity:1;fill:none;fill-opacity:1;stroke:#000000;stroke-width:0.2;stroke-miterlimit:4;stroke-dasharray:none;stroke-dashoffset:0.57139313;stroke-opacity:0.97619042"
       d="m 195.08552,143.53987 a 7.4000001,7.4000001 0 0 1 -7.4,-7.4 7.4000001,7.4000001 0 0 1 7.4,-7.4 7.4000001,7.4000001 0 0 1 7.4,7.4 7.4000001,7.4000001 0 0 1 -7.4,7.4 z"
       id="circle870" />
    <path
       inkscape:connector-curvature="0"
       id="path892"
       d="m 56.335727,90.552 a 1.9000001,1.9000001 0 0 1 -1.9,1.9 1.9000001,1.9000001 0 0 1 -1.9,-1.9 1.9000001,1.9000001 0 0 1 1.9,-1.9 1.9000001,1.9000001 0 0 1 1.9,1.9 z"
       style="opacity:1;fill:none;fill-opacity:1;stroke:#000000;stroke-width:0.20000002;stroke-miterlimit:4;stroke-dasharray:none;stroke-dashoffset:0.57139313;stroke-opacity:0.97619042" />
    <path
       inkscape:connector-curvature="0"
       style="opacity:1;fill:none;fill-opacity:1;stroke:#000000;stroke-width:0.2;stroke-miterlimit:4;stroke-dasharray:none;stroke-dashoffset:0.57139313;stroke-opacity:0.97619042"
       d="m 202.12628,112.93569 c 0,4.0996 -3.345,7.4 -7.5,7.4 H 9.826299 c -4.155,0 -7.5,-3.3004 -7.5,-7.4 0,-4.0996 3.345,-7.4 7.5,-7.4 H 194.62628 c 4.155,0 7.5,3.3004 7.5,7.4 z"
       id="rect819" />
    <path
       inkscape:connector-curvature="0"
       id="path890"
       d="m 194.28019,114.83569 a 1.9000001,1.9000001 0 0 1 -1.9,-1.9 1.9000001,1.9000001 0 0 1 1.9,-1.9 1.9000001,1.9000001 0 0 1 1.9,1.9 1.9000001,1.9000001 0 0 1 -1.9,1.9 z"
       style="opacity:1;fill:none;fill-opacity:1;stroke:#000000;stroke-width:0.20000002;stroke-miterlimit:4;stroke-dasharray:none;stroke-dashoffset:0.57139313;stroke-opacity:0.97619042" />
    <path
       inkscape:connector-curvature="0"
       id="path894"
       d="m 114.27973,114.83569 a 1.9000001,1.9000001 0 0 1 -1.9,-1.9 1.9000001,1.9000001 0 0 1 1.9,-1.9 1.9000001,1.9000001 0 0 1 1.9,1.9 1.9000001,1.9000001 0 0 1 -1.9,1.9 z"
       style="opacity:1;fill:none;fill-opacity:1;stroke:#000000;stroke-width:0.20000002;stroke-miterlimit:4;stroke-dasharray:none;stroke-dashoffset:0.57139313;stroke-opacity:0.97619042" />
    <path
       inkscape:connector-curvature="0"
       id="path896"
       d="m 74.279729,114.83569 a 1.9000001,1.9000001 0 0 1 -1.9,-1.9 1.9000001,1.9000001 0 0 1 1.9,-1.9 1.9000001,1.9000001 0 0 1 1.9,1.9 1.9000001,1.9000001 0 0 1 -1.9,1.9 z"
       style="opacity:1;fill:none;fill-opacity:1;stroke:#000000;stroke-width:0.20000002;stroke-miterlimit:4;stroke-dasharray:none;stroke-dashoffset:0.57139313;stroke-opacity:0.97619042" />
    <path
       inkscape:connector-curvature="0"
       id="path898"
       d="m 9.938079,114.83569 a 1.9000001,1.9000001 0 0 1 -1.9,-1.9 1.9000001,1.9000001 0 0 1 1.9,-1.9 1.9000001,1.9000001 0 0 1 1.9,1.9 1.9000001,1.9000001 0 0 1 -1.9,1.9 z"
       style="opacity:1;fill:none;fill-opacity:1;stroke:#000000;stroke-width:0.20000002;stroke-miterlimit:4;stroke-dasharray:none;stroke-dashoffset:0.57139313;stroke-opacity:0.97619042" />
    <path
       style="opacity:1;fill:none;fill-opacity:1;stroke:#000000;stroke-width:0.20000002;stroke-miterlimit:4;stroke-dasharray:none;stroke-dashoffset:0.57139313;stroke-opacity:0.97619042"
       d="m 140.42302,51.532024 a 1.9000001,1.9000001 0 0 1 -1.9,1.9 1.9000001,1.9000001 0 0 1 -1.9,-1.9 1.9000001,1.9000001 0 0 1 1.9,-1.9 1.9000001,1.9000001 0 0 1 1.9,1.9 z"
       id="path900"
       inkscape:connector-curvature="0" />
  </g>
  <g
     inkscape:groupmode="layer"
     id="layer2"
     inkscape:label="PenLock"
     transform="translate(-2.226299,-0.53201946)" />
  <circle
     style="opacity:1;fill:none;fill-opacity:1;stroke:#000000;stroke-width:0.2;stroke-miterlimit:4;stroke-dasharray:none;stroke-dashoffset:0.57139313;stroke-opacity:0.97619042"
     id="path990"
     cx="116.31652"
     cy="55.43428"
     r="4.4000001" />
  <circle
     style="opacity:1;fill:none;fill-opacity:1;stroke:#000000;stroke-width:0.2;stroke-miterlimit:4;stroke-dasharray:none;stroke-dashoffset:0.57139313;stroke-opacity:0.97619042"
     id="path992"
     cx="116.31652"
     cy="55.43428"
     r="7.4000001" />
  <circle
     style="opacity:1;fill:none;fill-opacity:1;stroke:#000000;stroke-width:0.2;stroke-miterlimit:4;stroke-dasharray:none;stroke-dashoffset:0.57139313;stroke-opacity:0.97619042"
     id="path994"
     cx="116.31652"
     cy="55.43428"
     r="13.4" />
  <circle
     r="7.4000001"
     cy="55.238628"
     cx="153.96303"
     id="circle996"
     style="opacity:1;fill:none;fill-opacity:1;stroke:#000000;stroke-width:0.2;stroke-miterlimit:4;stroke-dasharray:none;stroke-dashoffset:0.57139313;stroke-opacity:0.97619042" />
  <circle
     r="13.4"
     cy="55.238628"
     cx="153.96303"
     id="circle998"
     style="opacity:1;fill:none;fill-opacity:1;stroke:#000000;stroke-width:0.2;stroke-miterlimit:4;stroke-dasharray:none;stroke-dashoffset:0.57139313;stroke-opacity:0.97619042" />
  <rect
     style="opacity:1;fill:none;fill-opacity:1;stroke:#000000;stroke-width:0.19999999;stroke-miterlimit:4;stroke-dasharray:none;stroke-dashoffset:0.57139313;stroke-opacity:0.97619042"
     id="rect1000"
     width="2.8"
     height="5.3000002"
     x="105.917"
     y="52.784279" />
</svg>
